<?xml version="1.0" encoding="UTF-8"?>
<svg xmlns="http://www.w3.org/2000/svg" xmlns:xlink="http://www.w3.org/1999/xlink" width="24px" height="24px" viewBox="0 0 24 24" version="1.1">
<g id="surface1">
<path style=" stroke:none;fill-rule:nonzero;fill:rgb(0%,0%,0%);fill-opacity:1;" d="M 6.9375 5.859375 C 6.835938 5.859375 6.75 5.945312 6.75 6.046875 L 6.75 7.171875 C 6.75 7.273438 6.835938 7.359375 6.9375 7.359375 L 15.9375 7.359375 C 16.039062 7.359375 16.125 7.273438 16.125 7.171875 L 16.125 6.046875 C 16.125 5.945312 16.039062 5.859375 15.9375 5.859375 Z M 11.25 9.234375 L 6.9375 9.234375 C 6.835938 9.234375 6.75 9.320312 6.75 9.421875 L 6.75 10.546875 C 6.75 10.648438 6.835938 10.734375 6.9375 10.734375 L 11.25 10.734375 C 11.351562 10.734375 11.4375 10.648438 11.4375 10.546875 L 11.4375 9.421875 C 11.4375 9.320312 11.351562 9.234375 11.25 9.234375 Z M 10.125 19.96875 L 4.875 19.96875 L 4.875 3.46875 L 18 3.46875 L 18 10.96875 C 18 11.070312 18.085938 11.15625 18.1875 11.15625 L 19.5 11.15625 C 19.601562 11.15625 19.6875 11.070312 19.6875 10.96875 L 19.6875 2.53125 C 19.6875 2.117188 19.351562 1.78125 18.9375 1.78125 L 3.9375 1.78125 C 3.523438 1.78125 3.1875 2.117188 3.1875 2.53125 L 3.1875 20.90625 C 3.1875 21.320312 3.523438 21.65625 3.9375 21.65625 L 10.125 21.65625 C 10.226562 21.65625 10.3125 21.570312 10.3125 21.46875 L 10.3125 20.15625 C 10.3125 20.054688 10.226562 19.96875 10.125 19.96875 Z M 20.4375 17.90625 L 17.0625 17.90625 L 17.0625 17.046875 C 18.148438 16.726562 18.9375 15.722656 18.9375 14.53125 C 18.9375 13.082031 17.761719 11.90625 16.3125 11.90625 C 14.863281 11.90625 13.6875 13.082031 13.6875 14.53125 C 13.6875 15.71875 14.476562 16.726562 15.5625 17.046875 L 15.5625 17.90625 L 12.1875 17.90625 C 11.980469 17.90625 11.8125 18.074219 11.8125 18.28125 L 11.8125 21.84375 C 11.8125 22.050781 11.980469 22.21875 12.1875 22.21875 L 20.4375 22.21875 C 20.644531 22.21875 20.8125 22.050781 20.8125 21.84375 L 20.8125 18.28125 C 20.8125 18.074219 20.644531 17.90625 20.4375 17.90625 Z M 15.140625 14.53125 C 15.140625 13.882812 15.664062 13.359375 16.3125 13.359375 C 16.960938 13.359375 17.484375 13.882812 17.484375 14.53125 C 17.484375 15.179688 16.960938 15.703125 16.3125 15.703125 C 15.664062 15.703125 15.140625 15.179688 15.140625 14.53125 Z M 19.359375 20.765625 L 13.265625 20.765625 L 13.265625 19.359375 L 19.359375 19.359375 Z M 19.359375 20.765625 "/>
</g>
</svg>
