<svg id="ico-api-16" xmlns="http://www.w3.org/2000/svg" width="16" height="16" viewBox="0 0 16 16">
  <path id="Tracé_12549" data-name="Tracé 12549" d="M8.94,7.667,7.667,8.939,6.394,7.667,7.667,6.394ZM7.667,3.848,9.016,5.2l1.591-1.591L7.667.667l-2.94,2.94L6.318,5.2ZM3.849,7.667,5.2,6.318,3.607,4.727.667,7.667l2.94,2.94L5.2,9.016Zm7.636,0L10.136,9.016l1.591,1.591,2.94-2.94-2.94-2.94L10.136,6.318ZM7.667,11.485,6.318,10.136,4.727,11.727l2.94,2.94,2.94-2.94L9.016,10.136Z" transform="translate(0.333 0.333)" fill="#000"/>
</svg>
