<svg id="icon-bills-24" xmlns="http://www.w3.org/2000/svg" width="24" height="24" viewBox="0 0 24 24">
  <g id="Groupe_43" data-name="Groupe 43" transform="translate(0 0.612)">
    <path id="Tracé_2126" data-name="Tracé 2126" d="M19.629,24.18A3.432,3.432,0,0,1,16.2,20.751V12.18a.98.98,0,0,1,.98-.98h3.673a2.207,2.207,0,0,1,2.2,2.2v7.347A3.432,3.432,0,0,1,19.629,24.18Zm-1.469-11.02v7.592a1.469,1.469,0,1,0,2.939,0V13.4a.246.246,0,0,0-.245-.245Z" transform="translate(0.943 -1.404)"/>
    <path id="Tracé_2127" data-name="Tracé 2127" d="M14.527,9.159H7.18a.98.98,0,1,1,0-1.959h7.347a.98.98,0,1,1,0,1.959Z" transform="translate(-1.302 -2.302)"/>
    <path id="Tracé_2128" data-name="Tracé 2128" d="M14.527,13.159H7.18a.98.98,0,1,1,0-1.959h7.347a.98.98,0,1,1,0,1.959Z" transform="translate(-1.302 -1.404)"/>
    <path id="Tracé_2129" data-name="Tracé 2129" d="M10.853,17.218H7.18a.979.979,0,1,1,0-1.958h3.673a.979.979,0,1,1,0,1.958Z" transform="translate(-1.302 -0.493)"/>
    <path id="Tracé_2130" data-name="Tracé 2130" d="M22.771,25.976H5.629A3.432,3.432,0,0,1,2.2,22.547V5.4A2.206,2.206,0,0,1,4.4,3.2H19.1a2.207,2.207,0,0,1,2.2,2.2v8.571a.98.98,0,1,1-1.959,0V5.4a.246.246,0,0,0-.245-.245H4.4a.246.246,0,0,0-.245.245V22.547a1.471,1.471,0,0,0,1.469,1.469H22.771a.98.98,0,0,1,0,1.959Z" transform="translate(-2.2 -3.2)"/>
  </g>
</svg>
