<svg id="check-empty" xmlns="http://www.w3.org/2000/svg" width="24" height="24" viewBox="0 0 24 24">
  <g id="Groupe_20" data-name="Groupe 20">
    <path id="Tracé_103" data-name="Tracé 103" d="M0,0H24V24H0Z" fill="none"/>
    <g id="Tracé_105" data-name="Tracé 105" fill="none" stroke-linecap="round" stroke-linejoin="round">
      <path d="M18,20H6a2,2,0,0,1-2-2V6A2,2,0,0,1,6,4H18a2,2,0,0,1,2,2V18A2,2,0,0,1,18,20Z" stroke="none"/>
      <path d="M 18 18.39999961853027 C 18.22056007385254 18.39999961853027 18.39999961853027 18.22056007385254 18.39999961853027 18 L 18.39999961853027 6 C 18.39999961853027 5.779439926147461 18.22056007385254 5.599999904632568 18 5.599999904632568 L 6 5.599999904632568 C 5.779439926147461 5.599999904632568 5.599999904632568 5.779439926147461 5.599999904632568 6 L 5.599999904632568 18 C 5.599999904632568 18.22056007385254 5.779439926147461 18.39999961853027 6 18.39999961853027 L 18 18.39999961853027 M 18 20 L 6 20 C 4.895430088043213 20 4 19.10457038879395 4 18 L 4 6 C 4 4.895430088043213 4.895430088043213 4 6 4 L 18 4 C 19.10457038879395 4 20 4.895430088043213 20 6 L 20 18 C 20 19.10457038879395 19.10457038879395 20 18 20 Z" stroke="none" fill="#000"/>
    </g>
  </g>
</svg>
