<svg id="check" xmlns="http://www.w3.org/2000/svg" width="24" height="24" viewBox="0 0 24 24">
  <g id="Groupe_20" data-name="Groupe 20">
    <path id="Tracé_103" data-name="Tracé 103" d="M0,0H24V24H0Z" fill="none"/>
    <path id="Soustraction_1" data-name="Soustraction 1" d="M9756,16124.791h-12a2,2,0,0,1-2-2v-12a2,2,0,0,1,2-2h12a2,2,0,0,1,2,2v12A2,2,0,0,1,9756,16124.791Zm-10-8.8a.8.8,0,0,0-.564,1.362l3,3a.8.8,0,0,0,1.134,0l5-5a.8.8,0,1,0-1.129-1.129l-4.436,4.432-2.436-2.433A.8.8,0,0,0,9746,16115.99Z" transform="translate(-9738 -16104.789)" fill="#6360ff"/>
  </g>
</svg>
