<svg id="create" xmlns="http://www.w3.org/2000/svg" width="24" height="24" viewBox="0 0 24 24">
  <path id="Tracé_246" data-name="Tracé 246" d="M-71.8,17.692h24v24h-24Z" transform="translate(71.804 -17.692)" fill="none"/>
  <g id="Groupe_3489" data-name="Groupe 3489" transform="translate(-0.2 -0.2)">
    <path id="Tracé_2155" data-name="Tracé 2155" d="M-81.1,25.985a1.172,1.172,0,0,1-1-1.287V11.828a1.171,1.171,0,0,1,1-1.287,1.171,1.171,0,0,1,1,1.287V24.7A1.172,1.172,0,0,1-81.1,25.985Z" transform="translate(93.318 -6.041)"/>
    <path id="Tracé_2156" data-name="Tracé 2156" d="M-71.945,16.541H-84.811a1.171,1.171,0,0,1-1.287-1,1.171,1.171,0,0,1,1.287-1h12.867a1.17,1.17,0,0,1,1.287,1A1.171,1.171,0,0,1-71.945,16.541Z" transform="translate(90.598 -3.341)"/>
  </g>
</svg>
