<svg id="icon-dashboard-24" xmlns="http://www.w3.org/2000/svg" width="24" height="24" viewBox="0 0 24 24">
  <g id="icon_dashboard" data-name="icon dashboard" transform="translate(0 0)">
    <path id="Tracé_1651" data-name="Tracé 1651" d="M20.3,24.18H16.629A3.432,3.432,0,0,1,13.2,20.751V14.629A3.432,3.432,0,0,1,16.629,11.2H20.3a3.432,3.432,0,0,1,3.429,3.429v6.122A3.432,3.432,0,0,1,20.3,24.18Zm-3.673-11.02a1.471,1.471,0,0,0-1.469,1.469v6.122a1.471,1.471,0,0,0,1.469,1.469H20.3a1.471,1.471,0,0,0,1.469-1.469V14.629A1.471,1.471,0,0,0,20.3,13.159Z" transform="translate(0.269 -0.18)"/>
    <path id="Tracé_1652" data-name="Tracé 1652" d="M20.3,11.506H16.629A3.432,3.432,0,0,1,13.2,8.078V5.629A3.432,3.432,0,0,1,16.629,2.2H20.3a3.432,3.432,0,0,1,3.429,3.429V8.078A3.432,3.432,0,0,1,20.3,11.506ZM16.629,4.159a1.471,1.471,0,0,0-1.469,1.469V8.078a1.471,1.471,0,0,0,1.469,1.469H20.3a1.471,1.471,0,0,0,1.469-1.469V5.629A1.471,1.471,0,0,0,20.3,4.159Z" transform="translate(0.269 -2.2)"/>
    <path id="Tracé_1653" data-name="Tracé 1653" d="M5.629,2.2H9.3a3.432,3.432,0,0,1,3.429,3.429v6.122A3.432,3.432,0,0,1,9.3,15.18H5.629A3.432,3.432,0,0,1,2.2,11.751V5.629A3.432,3.432,0,0,1,5.629,2.2ZM9.3,13.22a1.471,1.471,0,0,0,1.469-1.469V5.629A1.471,1.471,0,0,0,9.3,4.159H5.629A1.471,1.471,0,0,0,4.159,5.629v6.122A1.471,1.471,0,0,0,5.629,13.22Z" transform="translate(-2.2 -2.2)"/>
    <path id="Tracé_1654" data-name="Tracé 1654" d="M5.629,14.2H9.3a3.432,3.432,0,0,1,3.429,3.429v2.449A3.432,3.432,0,0,1,9.3,23.506H5.629A3.432,3.432,0,0,1,2.2,20.078V17.629A3.432,3.432,0,0,1,5.629,14.2ZM9.3,21.547a1.471,1.471,0,0,0,1.469-1.469V17.629A1.471,1.471,0,0,0,9.3,16.159H5.629a1.471,1.471,0,0,0-1.469,1.469v2.449a1.471,1.471,0,0,0,1.469,1.469Z" transform="translate(-2.2 0.494)"/>
  </g>
  <path id="Tracé_397" data-name="Tracé 397" d="M40.471,22.28h24v24h-24Z" transform="translate(-40.471 -22.28)" fill="none"/>
</svg>
