<svg id="ico-knowledgebases-16" xmlns="http://www.w3.org/2000/svg" width="16" height="16" viewBox="0 0 16 16">
  <path id="Tracé_12545" data-name="Tracé 12545" d="M12.25,4.125a1.748,1.748,0,0,0-1.75,1.75A.857.857,0,0,0,10.506,6l-1.184.4A2.606,2.606,0,0,0,7.443,5.041V3.781a1.753,1.753,0,1,0-.881,0v1.26A2.607,2.607,0,0,0,4.684,6.394L3.494,6A.861.861,0,0,0,3.5,5.875a1.748,1.748,0,1,0-.28.951l1.184.4A2.633,2.633,0,0,0,5.04,9.375l-.823,1.032A1.655,1.655,0,0,0,3.5,10.25,1.75,1.75,0,1,0,5.25,12a1.722,1.722,0,0,0-.35-1.05l.823-1.032a2.624,2.624,0,0,0,2.549,0l.822,1.032a1.753,1.753,0,1,0,.688-.548L8.96,9.369A2.619,2.619,0,0,0,9.6,7.217l1.184-.4a1.749,1.749,0,1,0,1.47-2.7ZM1.75,6.458a.583.583,0,1,1,.583-.583A.585.585,0,0,1,1.75,6.458ZM3.5,12.583A.583.583,0,1,1,4.083,12,.585.585,0,0,1,3.5,12.583Zm2.917-10.5A.583.583,0,1,1,7,2.667.585.585,0,0,1,6.417,2.083Zm.583,7A1.458,1.458,0,1,1,8.458,7.625,1.459,1.459,0,0,1,7,9.083Zm3.5,2.333A.583.583,0,1,1,9.917,12,.585.585,0,0,1,10.5,11.417Zm1.75-4.958a.583.583,0,1,1,.583-.583A.585.585,0,0,1,12.25,6.458Z" transform="translate(1 0.958)" fill="#000"/>
</svg>
