<svg id="ico-parameters-16" xmlns="http://www.w3.org/2000/svg" width="16" height="16" viewBox="0 0 16 16">
  <g id="Groupe_5076" data-name="Groupe 5076" transform="translate(-383.667 -543)">
    <path id="Tracé_12546" data-name="Tracé 12546" d="M10.666,10.413a.747.747,0,1,0-.747-.747A.747.747,0,0,0,10.666,10.413Z" transform="translate(383.333 543)" fill="#000"/>
    <path id="Tracé_12547" data-name="Tracé 12547" d="M10.666,11c-.487,0-1.46.24-1.493.72a1.82,1.82,0,0,0,2.987,0C12.126,11.24,11.153,11,10.666,11Z" transform="translate(383.333 543)" fill="#000" fill-rule="evenodd"/>
    <path id="Tracé_12548" data-name="Tracé 12548" d="M11.333,6.727V3.513l-5-2.18-5,2.18V6.787a6.809,6.809,0,0,0,5,6.547A6.108,6.108,0,0,0,7.4,12.967a4,4,0,1,0,3.933-6.24Zm-4.667,3.94a3.844,3.844,0,0,0,.153,1.08,4.411,4.411,0,0,1-.487.2,5.472,5.472,0,0,1-3.667-5.16v-2.4l3.667-1.6L10,4.387v2.34A4,4,0,0,0,6.666,10.667Zm4,2.667a2.667,2.667,0,1,1,2.667-2.667A2.666,2.666,0,0,1,10.666,13.333Z" transform="translate(383.333 543)" fill="#000" fill-rule="evenodd"/>
  </g>
</svg>
