<svg id="icon-settings-24" xmlns="http://www.w3.org/2000/svg" width="24" height="24" viewBox="0 0 24 24">
  <g id="Groupe_5068" data-name="Groupe 5068">
    <path id="Tracé_2226" data-name="Tracé 2226" d="M668.869,400.165a4.1,4.1,0,0,1,0-8.207h0a4.077,4.077,0,0,1,2.9,1.2h0a4.1,4.1,0,0,1-2.9,7.006Zm0-6.247a2.145,2.145,0,0,0-1.514,3.66,2.192,2.192,0,0,0,3.03,0,2.145,2.145,0,0,0-1.516-3.66Z" transform="translate(-657.923 -384.674)"/>
    <path id="Tracé_2227" data-name="Tracé 2227" d="M666.61,406.8a2.026,2.026,0,0,1-1.989-1.722l-.244-1.759c-.367-.209-.667-.381-.953-.572l-1.714.639a2.028,2.028,0,0,1-2.5-.864l-1.635-2.826a2.028,2.028,0,0,1,.505-2.605l1.41-1.1c-.015-.192-.022-.383-.023-.575s.008-.4.023-.588l-1.411-1.1a2.028,2.028,0,0,1-.5-2.6l1.637-2.824a2.024,2.024,0,0,1,2.5-.858l1.641.661c.357-.21.654-.384.957-.54l.318-1.808a2.027,2.027,0,0,1,2-1.729h3.258a2.091,2.091,0,0,1,2.005,1.731l.244,1.751c.367.2.661.367.948.56l1.721-.626a2.034,2.034,0,0,1,2.5.858l1.635,2.826a2.034,2.034,0,0,1-.505,2.6l-1.412,1.1c.014.19.021.379.023.57a.98.98,0,0,1-.968.99h-.011a.981.981,0,0,1-.98-.969,7.029,7.029,0,0,0-.065-.9.983.983,0,0,1,.367-.9l1.837-1.437-1.616-2.9-1.714.633a2.057,2.057,0,0,1-1.9-.226,6.608,6.608,0,0,0-.669-.382A2.034,2.034,0,0,1,670.2,387.8l-.244-1.77-3.321-.048-.31,1.8a2.051,2.051,0,0,1-1.132,1.532,7.1,7.1,0,0,0-.676.4,2.04,2.04,0,0,1-1.871.213l-1.657-.668-1.707,2.851,1.852,1.511a.98.98,0,0,1,.367.9,7.289,7.289,0,0,0-.063.9,7.011,7.011,0,0,0,.063.878.979.979,0,0,1-.367.906l-1.837,1.437,1.617,2.906,1.715-.635a2.037,2.037,0,0,1,1.9.219,6.477,6.477,0,0,0,.678.4,2.035,2.035,0,0,1,1.112,1.509l.245,1.768,1.692.042a.98.98,0,1,1,0,1.96h-1.643Z" transform="translate(-657.306 -384.029)"/>
    <path id="Tracé_2228" data-name="Tracé 2228" d="M681.631,403.313h-7.348a.98.98,0,0,1,0-1.96h7.348a.98.98,0,1,1,0,1.96Z" transform="translate(-658.611 -385.438)"/>
    <path id="Tracé_2229" data-name="Tracé 2229" d="M681.631,406.646h-7.348a.98.98,0,0,1,0-1.96h7.348a.98.98,0,1,1,0,1.96Z" transform="translate(-658.611 -385.709)"/>
    <path id="Tracé_2230" data-name="Tracé 2230" d="M681.631,409.98h-7.348a.98.98,0,0,1,0-1.961h7.348a.98.98,0,0,1,0,1.961Z" transform="translate(-658.611 -385.98)"/>
  </g>
</svg>
