<svg id="icon-stat-24" xmlns="http://www.w3.org/2000/svg" width="24" height="24" viewBox="0 0 24 24">
  <g id="Groupe_5067" data-name="Groupe 5067" transform="translate(0 -33.933)">
    <path id="Tracé_12541" data-name="Tracé 12541" d="M670.69,402.276a1.066,1.066,0,0,1-1.066-1.066V393.8a2.553,2.553,0,0,1,2.546-2.548h2.964a1.066,1.066,0,1,1,0,2.133h-2.962a.417.417,0,0,0-.415.416v7.407A1.067,1.067,0,0,1,670.69,402.276Z" transform="translate(-660.913 -348.923)"/>
    <path id="Tracé_12542" data-name="Tracé 12542" d="M679.194,405.476H664.5a4.657,4.657,0,0,1-4.653-4.653V386.129a4.658,4.658,0,0,1,4.653-4.653h14.694a4.659,4.659,0,0,1,4.653,4.653v14.694A4.658,4.658,0,0,1,679.194,405.476ZM664.5,383.435a2.7,2.7,0,0,0-2.694,2.695v14.694a2.7,2.7,0,0,0,2.694,2.694h14.694a2.7,2.7,0,0,0,2.694-2.694V386.129a2.7,2.7,0,0,0-2.694-2.695Z" transform="translate(-659.847 -347.543)"/>
    <path id="Tracé_12543" data-name="Tracé 12543" d="M678.1,402.276H667.728a2.552,2.552,0,0,1-2.548-2.547v-1.482a2.554,2.554,0,0,1,2.546-2.548h2.964a1.066,1.066,0,1,1,0,2.133h-2.962a.417.417,0,0,0-.415.417v1.479a.417.417,0,0,0,.415.415h6.341V389.358a2.552,2.552,0,0,1,2.549-2.548H678.1a2.552,2.552,0,0,1,2.547,2.547v10.371A2.551,2.551,0,0,1,678.1,402.276Zm-1.9-2.133h1.9a.416.416,0,0,0,.414-.417V389.358a.416.416,0,0,0-.416-.415h-1.479a.415.415,0,0,0-.416.415Z" transform="translate(-660.913 -348.61)"/>
  </g>
</svg>
