<svg id="icon-team-24" xmlns="http://www.w3.org/2000/svg" width="24" height="24" viewBox="0 0 24 24">
  <g id="team" transform="translate(0)">
    <g id="Groupe_2573" data-name="Groupe 2573">
      <path id="Tracé_158" data-name="Tracé 158" d="M285.315,408.89h24v24h-24Z" transform="translate(-285.315 -408.89)" fill="none"/>
      <path id="Tracé_2170" data-name="Tracé 2170" d="M303.189,428.947a.979.979,0,0,1-.978-.978,3.924,3.924,0,0,0-3.92-3.92h-4.9a3.923,3.923,0,0,0-3.918,3.92.98.98,0,0,1-1.959,0,5.884,5.884,0,0,1,5.878-5.877h4.9a5.884,5.884,0,0,1,5.878,5.877A.979.979,0,0,1,303.189,428.947Z" transform="translate(-287.515 -407.444)"/>
      <path id="Tracé_2171" data-name="Tracé 2171" d="M301.494,420.822a.979.979,0,0,1,0-1.958,2.082,2.082,0,1,0,0-4.164.979.979,0,0,1,0-1.958,4.04,4.04,0,1,1,0,8.08Z" transform="translate(-284.596 -409.542)"/>
      <path id="Tracé_2172" data-name="Tracé 2172" d="M295.257,422.383a5.143,5.143,0,1,1,3.631-8.786h0a5.142,5.142,0,0,1-3.621,8.786Zm0-8.324a3.182,3.182,0,1,0,0,6.365h0a3.183,3.183,0,0,0,2.242-5.438h0A3.176,3.176,0,0,0,295.257,414.06Z" transform="translate(-286.931 -409.685)"/>
      <path id="Tracé_2173" data-name="Tracé 2173" d="M307.392,427.947a.979.979,0,0,1-.978-.978,3.924,3.924,0,0,0-3.92-3.92.979.979,0,0,1,0-1.958,5.884,5.884,0,0,1,5.878,5.877A.979.979,0,0,1,307.392,427.947Z" transform="translate(-284.372 -407.668)"/>
    </g>
  </g>
</svg>
